<svg clip-rule="evenodd" fill-rule="evenodd" stroke-linejoin="round" stroke-miterlimit="2" viewBox="0 0 560 400" xmlns="http://www.w3.org/2000/svg">
  <circle cx="280" cy="200" fill="#6916ff" r="150"/>
  <g fill="#fff" fill-rule="nonzero">
    <path d="M290.725 110.225c-1.078125-.778125-1.40625-2.25-.759375-3.403125.890625-.571875 2.034375-.571875 2.925 0 6.609375 2.746875 12.590625 6.796875 17.578125 11.925 2.840625 2.634375 5.221875 5.709375 7.03125 9.09375 1.9125 3.45 3.478125 7.059375 4.6875 10.8 1.153125 3.871875 1.753125 7.89375 1.7625 11.925-.590625 3.984375-1.171875 23.296875-12.309375 32.390625-2.925 1.753125-6.740625 1.0125-8.79375-1.70625-1.63125-1.9125-1.865625-4.659375-.58125-6.815625 9.6375-14.925 10.096875-34.06875 1.171875-49.434375-3.75-5.30625-8.00625-10.246875-12.7125-14.775zm-17.2875 174.20625c1.171875 1.134375 1.171875 2.26875.590625 2.840625s-1.7625 1.134375-2.34375.5625c-6.609375-2.746875-12.590625-6.796875-17.578125-11.925-2.83125-2.615625-5.2125-5.690625-7.03125-9.09375-1.9125-3.440625-3.478125-7.05-4.6875-10.790625-1.1625-3.871875-1.753125-7.89375-1.7625-11.934375.590625-3.975 1.171875-23.296875 12.309375-32.390625 2.915625-1.753125 6.73125-1.0125 8.784375 1.70625 1.7625 1.921875 1.7625 4.903125 0 6.825-9.6375 14.925-10.0875 34.059375-1.171875 49.425 3.796875 5.315625 8.11875 10.265625 12.890625 14.775z" fill-opacity=".5"/>
    <path d="M324.00625 237.55625c-.853125-10.903125-5.165625-21.2625-12.309375-29.540625-7.2375-7.275-15.534375-13.40625-24.609375-18.1875-7.9125-4.378125-15.375-9.534375-22.265625-15.39375-5.6625-5.325-9.553125-12.271875-11.128125-19.884375-1.396875-7.865625-.403125-15.965625 2.86875-23.25 3.91875-8.109375 9.534375-15.271875 16.4625-21.01875.796875-.7125 1.040625-1.865625.590625-2.840625-.403125-.7125-1.1625-1.1625-1.978125-1.1625-.571875 0-1.115625.215625-1.5375.6-9.3375 4.06875-17.278125 10.790625-22.85625 19.3125-6.234375 8.953125-9.15 19.809375-8.259375 30.684375.46875 5.49375 1.85625 10.875 4.10625 15.909375 2.4375 4.9875 5.596875 9.58125 9.375 13.640625 7.453125 7.115625 15.946875 13.059375 25.190625 17.60625 7.95 4.125 15.421875 9.084375 22.265625 14.775 6.01875 5.278125 9.965625 12.534375 11.1375 20.45625 1.65 8.240625.61875 16.78125-2.934375 24.43125-3.984375 8.053125-9.80625 15.05625-16.996875 20.45625-.6.346875-.975.984375-.975 1.678125 0 .421875.13125.825.384375 1.1625.328125.6.9375 1.03125 1.621875 1.134375s1.396875-.09375 1.903125-.5625c8.709375-5.025 16.29375-11.803125 22.265625-19.89375 5.8125-8.98125 8.49375-19.5375 7.678125-30.1125z"/>
  </g>
</svg>
